<svg id="Layer_1" data-name="Layer 1" xmlns="http://www.w3.org/2000/svg" xmlns:xlink="http://www.w3.org/1999/xlink" viewBox="0 0 512 512"><defs><radialGradient id="GradientFill_1" cx="279.14" cy="228.29" r="285.8" gradientUnits="userSpaceOnUse"><stop offset="0" stop-color="#fff"/><stop offset="0.51" stop-color="#fbfbfb"/><stop offset="1" stop-color="#d0d2d3"/></radialGradient></defs><title>help</title><path d="M282.94,100.12,18,205.52c-14.73,5.89-21.79,23-15.9,37.1l92.44,212c5.89,14.73,22.38,21.79,36.51,15.9l233.76-93c27.66,18.84,51.22,30.62,87.73,28.26-25.33-10-39.45-21.78-57.7-40.62H396c14.72-5.89,21.79-23,15.9-37.1L319.45,116C313.56,101.3,297.07,94.23,282.94,100.12Z" fill="#231f20" fill-rule="evenodd"/><path d="M283.53,107.18,28,202a26.14,26.14,0,0,0-15.9,34.74L94.52,441.64c5.89,14.14,21.2,21.79,34.74,16.48l226.11-83.61c25.91,18.84,47.69,30.62,83,29.45-24.15-10.61-37.11-21.79-54.18-40l1.18-.59a26.13,26.13,0,0,0,15.89-34.74L318.86,123.67C313,109.54,297.66,101.89,283.53,107.18Z" fill="#839ca9" fill-rule="evenodd"/><path d="M389.52,40.06,71,99.53c-17.07,3.53-29.45,20.6-25.32,37.69l55.94,257.31c4.12,17.08,20,28.85,37.69,25.32l280.87-52.41c26.5,27.09,50.63,45.35,91.86,50.64-25.91-17.08-39.45-32.39-55.35-57.7h1.17c17.67-3.53,29.45-20.61,25.91-37.69L427.2,66C423.67,48.3,407.19,36.53,389.52,40.06Z" fill="#231f20" fill-rule="evenodd"/><path d="M389.52,48.3,83.34,97.17C66.25,100.12,54.47,116,57.43,132.51l47.1,247.3c3.53,16.49,18.84,28.27,35.92,25.91l269.68-43.57c24.73,26.49,47.1,44.75,86.56,50.64C472,396.3,459.59,381,445.46,356.85l.59-.59A30.42,30.42,0,0,0,472,320.93L424.85,73.62C421.31,57.14,406,45.36,389.52,48.3Z" fill-rule="evenodd" fill="url(#GradientFill_1)"/><path d="M292.95,279.12l-39.45,7.07a90.14,90.14,0,0,1-1.76-10.6c-2.36-12.37-1.77-23.55.59-32.39,2.94-8.83,10-20,20.6-32.38,11.18-12.37,17.67-20.61,19.43-24.14,2.95-5.3,3.53-11.77,2.95-17.67-1.77-8.24-6.49-14.72-14.14-20-7.65-4.71-17.07-5.89-28.85-4.13-11.2,1.76-19.44,6.48-25.92,14.13s-10,18.26-10.6,31.8l-40.63,1.76c-1.76-18.84,3.54-35.91,15.31-51.22C202.86,126,221.12,116,244.67,111.89c24.73-4.12,45.93-1.17,63,9.42s27.08,24.14,30,41.81a47.39,47.39,0,0,1-3.53,28.26c-4.12,9.42-13.54,23.55-28.85,41.21-7.66,8.83-12.37,16.49-13.55,21.2-1.17,5.3-1.17,13.54,1.17,25.32ZM264.1,344.48l-7.65-43.57,43-7.66,7.65,43.57Z" fill="#231f20"/></svg>